<?xml version="1.0" encoding="iso-8859-1"?>
<!-- Generator: Adobe Illustrator 19.0.0, SVG Export Plug-In . SVG Version: 6.00 Build 0)  -->
<svg version="1.1" id="Capa_1" xmlns="http://www.w3.org/2000/svg" xmlns:xlink="http://www.w3.org/1999/xlink" x="0px" y="0px"
	 viewBox="0 0 136.394 136.394" style="enable-background:new 0 0 136.394 136.394;" xml:space="preserve">
<g>
	<g>
		<g>
			<path style="fill-rule:evenodd;clip-rule:evenodd;fill:#CC4428;" d="M106.796,78.378c2.753-4.492,8.627-5.903,13.118-3.149
				c4.492,2.753,5.902,8.625,3.15,13.118"/>
			<path style="fill-rule:evenodd;clip-rule:evenodd;fill:#CC4428;" d="M100.892,95.112c3.721-3.731,9.761-3.739,13.491-0.02
				c3.73,3.722,3.738,9.761,0.018,13.492"/>
			<path style="fill-rule:evenodd;clip-rule:evenodd;fill:#CC4428;" d="M88.089,106.11c4.731-2.316,10.445-0.359,12.763,4.373
				c2.317,4.732,0.358,10.445-4.372,12.763"/>
		</g>
		<g>
			<path style="fill-rule:evenodd;clip-rule:evenodd;fill:#CC4428;" d="M30.072,78.378c-2.753-4.492-8.626-5.903-13.118-3.149
				c-4.492,2.753-5.901,8.625-3.149,13.118"/>
			<path style="fill-rule:evenodd;clip-rule:evenodd;fill:#CC4428;" d="M37.529,95.112c-3.72-3.731-9.761-3.739-13.491-0.02
				c-3.73,3.722-3.738,9.761-0.018,13.492"/>
			<path style="fill-rule:evenodd;clip-rule:evenodd;fill:#CC4428;" d="M50.331,106.11c-4.731-2.316-10.445-0.359-12.763,4.373
				c-2.316,4.732-0.358,10.445,4.373,12.763"/>
		</g>
	</g>
	<g>
		<g>
			<path style="fill-rule:evenodd;clip-rule:evenodd;fill:#CC4428;" d="M115.488,48.326L103.67,65.784
				c-1.598,2.429-3.709,1.17-5.75-0.176l0,0c-2.042-1.345,2.372-10.309,3.972-12.737l6.2-9.414"/>
			<path style="fill-rule:evenodd;clip-rule:evenodd;fill:#E4552C;" d="M132.772,26.126c5.275,5.956,4.724,15.061-1.23,20.335
				c-5.957,5.275-15.061,4.722-20.336-1.232"/>
			<path style="fill-rule:evenodd;clip-rule:evenodd;fill:#E4552C;" d="M129.043,15.65c-8.301-4.982-19.068-2.294-24.052,6.008
				c-4.982,8.3-2.291,19.066,6.009,24.05"/>
		</g>
		<g>
			<path style="fill-rule:evenodd;clip-rule:evenodd;fill:#CC4428;" d="M20.906,48.326l11.816,17.458
				c1.6,2.429,3.709,1.17,5.751-0.176l0,0c2.042-1.345-2.373-10.309-3.971-12.737l-6.201-9.414"/>
			<path style="fill-rule:evenodd;clip-rule:evenodd;fill:#E4552C;" d="M3.623,26.126c-5.276,5.956-4.725,15.061,1.228,20.335
				c5.957,5.275,15.06,4.722,20.336-1.232"/>
			<path style="fill-rule:evenodd;clip-rule:evenodd;fill:#E4552C;" d="M7.351,15.65c8.302-4.982,19.069-2.294,24.051,6.008
				c4.983,8.3,2.291,19.066-6.008,24.05"/>
		</g>
	</g>
	<g>
		<path style="fill-rule:evenodd;clip-rule:evenodd;fill:#E4552C;" d="M100.349,48.483c5.444,6.944,8.689,15.693,8.689,25.201
			c0,22.573-18.299,40.874-40.873,40.874S27.291,96.257,27.291,73.684c0-9.91,3.526-18.997,9.393-26.072"/>
		<path style="fill-rule:evenodd;clip-rule:evenodd;fill:#E4552C;" d="M57.826,56.442c0,2.508-2.034,4.543-4.543,4.543h-1.328
			c-2.508,0-4.541-2.035-4.541-4.543V38.78c0-2.509,2.033-4.541,4.541-4.541h1.328c2.509,0,4.543,2.032,4.543,4.541V56.442z"/>
		<path style="fill-rule:evenodd;clip-rule:evenodd;fill:#E4552C;" d="M89.836,56.442c0,2.508-2.032,4.543-4.541,4.543h-1.328
			c-2.508,0-4.541-2.035-4.541-4.543V38.78c0-2.509,2.033-4.541,4.541-4.541h1.328c2.509,0,4.541,2.032,4.541,4.541V56.442z"/>
		<g>
			<g>
				<circle style="fill-rule:evenodd;clip-rule:evenodd;fill:#434849;" cx="84.632" cy="39.953" r="3.514"/>
				<path style="fill-rule:evenodd;clip-rule:evenodd;fill:#FFFFFF;" d="M84.632,39.276c0-0.735,0.592-1.331,1.326-1.331
					c0.735,0,1.328,0.596,1.328,1.331c0,0.731-0.593,1.328-1.328,1.328C85.224,40.605,84.632,40.008,84.632,39.276z"/>
			</g>
			<g>
				<circle style="fill-rule:evenodd;clip-rule:evenodd;fill:#434849;" cx="52.62" cy="39.953" r="3.514"/>
				<path style="fill-rule:evenodd;clip-rule:evenodd;fill:#FFFFFF;" d="M52.62,39.276c0-0.735,0.593-1.331,1.326-1.331
					c0.736,0,1.328,0.596,1.328,1.331c0,0.731-0.592,1.328-1.328,1.328C53.213,40.605,52.62,40.008,52.62,39.276z"/>
			</g>
		</g>
	</g>
</g>
<g>
</g>
<g>
</g>
<g>
</g>
<g>
</g>
<g>
</g>
<g>
</g>
<g>
</g>
<g>
</g>
<g>
</g>
<g>
</g>
<g>
</g>
<g>
</g>
<g>
</g>
<g>
</g>
<g>
</g>
</svg>
